<svg id="Capa_1" data-name="Capa 1" xmlns="http://www.w3.org/2000/svg" viewBox="0 0 1288.48 1288.48"><defs><style>.cls-1{fill:#fff;}</style></defs><path class="cls-1" d="M1453.94,382.24H552.14c-92.12,0-167,74.9-167,167v901.8c0,92,74.92,167,167,167h901.8c92,0,167-74.93,167-167V549.26C1621,457.16,1546,382.24,1453.94,382.24Z" transform="translate(-355.76 -355.76)"/><g id="Capa_1-2" data-name="Capa 1"><g id="Capa_2-2" data-name="Capa 2-2"><path d="M1440.92,1644.24H559.08c-112.11,0-203.32-91.21-203.32-203.32V559.08C355.76,447,447,355.76,559.08,355.76h881.84c112.11,0,203.32,91.21,203.32,203.32v881.84C1644.24,1553,1553,1644.24,1440.92,1644.24ZM559.08,395.76C469,395.76,395.76,469,395.76,559.08v881.84c0,90,73.26,163.32,163.32,163.32h881.84c90,0,163.32-73.27,163.32-163.32V559.08c0-90.06-73.27-163.32-163.32-163.32Z" transform="translate(-355.76 -355.76)"/><circle cx="280.44" cy="276.8" r="159.84"/><circle cx="280.44" cy="1011.2" r="159.84"/><circle cx="1010.52" cy="1011.2" r="159.84"/><circle cx="1010.52" cy="276.8" r="159.84"/><circle cx="644.24" cy="644.24" r="159.84"/></g></g></svg>