<svg id="Capa_3" data-name="Capa 3" xmlns="http://www.w3.org/2000/svg" viewBox="0 0 1337.84 1489.25"><defs><style>.cls-1{fill:#fff;}</style></defs><path class="cls-1" d="M1621,621.14a148,148,0,0,0-44.54-39.62l-502.29-290a148.79,148.79,0,0,0-148.36,0l-502.28,290A148.76,148.76,0,0,0,349.36,710v580a148.77,148.77,0,0,0,74.18,128.49l502.28,290a148.75,148.75,0,0,0,148.36,0l502.29-290A148.78,148.78,0,0,0,1650.64,1290V710A148.77,148.77,0,0,0,1621,621.14Z" transform="translate(-331.08 -255.37)"/><path d="M1635.57,613.23a178.73,178.73,0,0,0-56.17-51.12L1089.52,279.28a179.54,179.54,0,0,0-179,0L420.6,562.11a179.64,179.64,0,0,0-89.52,155.06v565.66a179.56,179.56,0,0,0,89.52,155.06l489.88,282.83a178.71,178.71,0,0,0,72.35,23.09q8.56.81,17.17.82t17.17-.82a178.71,178.71,0,0,0,72.35-23.09l489.88-282.83a179.56,179.56,0,0,0,89.52-155.06V717.17a179.64,179.64,0,0,0-33.35-103.94Zm-1,669.6a145.11,145.11,0,0,1-72.35,125.32L1072.35,1691a144.21,144.21,0,0,1-55.18,18.31,146.09,146.09,0,0,1-34.34,0A144.26,144.26,0,0,1,927.65,1691L437.78,1408.15a145.1,145.1,0,0,1-72.36-125.32V717.17a144.24,144.24,0,0,1,11.73-56.94,146.21,146.21,0,0,1,17.17-29.74,144.48,144.48,0,0,1,43.46-38.63L927.65,309a145.13,145.13,0,0,1,144.7,0l489.88,282.84a144.32,144.32,0,0,1,43.45,38.63,146.21,146.21,0,0,1,17.17,29.74,144.42,144.42,0,0,1,11.73,56.94Z" transform="translate(-331.08 -255.37)"/><ellipse cx="1001.94" cy="932.77" rx="66.41" ry="91.95"/><ellipse cx="1201.05" cy="619.67" rx="66.41" ry="91.95"/><ellipse cx="807.76" cy="1257.02" rx="66.41" ry="91.95"/><ellipse cx="282.23" cy="330.76" rx="91.95" ry="57.23"/><ellipse cx="499.48" cy="446.91" rx="91.95" ry="57.23"/><ellipse cx="716.73" cy="576.27" rx="91.95" ry="57.23"/><ellipse cx="617.41" cy="128.96" rx="91.95" ry="57.23"/><ellipse cx="834.66" cy="245.12" rx="91.95" ry="57.23"/><ellipse cx="1051.91" cy="374.48" rx="91.95" ry="57.23"/><ellipse cx="343.05" cy="932.77" rx="78.23" ry="91.95"/><ellipse cx="531.06" cy="832.96" rx="78.23" ry="91.95"/><ellipse cx="512.13" cy="1223.49" rx="78.23" ry="91.95"/><ellipse cx="148.46" cy="1045.46" rx="78.23" ry="91.95"/><ellipse cx="158.76" cy="613.88" rx="78.23" ry="91.95"/><path d="M1652.74,643l-29.89,17.25L1081.27,972.91a128.2,128.2,0,0,0-64.1,111v659.88q-8.55.81-17.17.82t-17.17-.82V1083.93a128.2,128.2,0,0,0-64.09-111L377.15,660.23,347.27,643a178.15,178.15,0,0,1,17.17-29.75l29.88,17.26L935.91,943.17a128.18,128.18,0,0,0,128.19,0l541.58-312.68,29.89-17.26A179.55,179.55,0,0,1,1652.74,643Z" transform="translate(-331.08 -255.37)"/></svg>