<svg id="Capa_1" data-name="Capa 1" xmlns="http://www.w3.org/2000/svg" viewBox="0 0 1288.48 1288.48"><defs><style>.cls-1{fill:#fff;}</style></defs><path class="cls-1" d="M1450.9,382.08H549.1c-92.12,0-167,74.9-167,167v901.8c0,92,74.92,167,167,167h901.8c92,0,167-74.93,167-167V549.1C1617.92,457,1543,382.08,1450.9,382.08Z" transform="translate(-355.76 -355.76)"/><circle cx="644.24" cy="644.24" r="159.56"/><path d="M1440.92,355.76H559.08C447,355.76,355.76,447,355.76,559.08v881.84c0,112.11,91.21,203.32,203.32,203.32h881.84c112.08,0,203.32-91.24,203.32-203.32V559.08C1644.24,447,1553,355.76,1440.92,355.76Zm163.32,1085.16c0,90-73.32,163.32-163.32,163.32H559.08c-90.06,0-163.32-73.32-163.32-163.32V559.08c0-90.08,73.24-163.32,163.32-163.32h881.84c90,0,163.32,73.26,163.32,163.32Z" transform="translate(-355.76 -355.76)"/></svg>